# xmcd
#
# Track frame offsets: 
#        150
#        29536
#        61048
#        93150
#        122765
#        142789
#        164314
#        196973
#        231662
#        261008
#        296215
#        329457
#
# Disc length: 4670 seconds
#
# Revision: 1
# Processed by: cddbd v1.5.2PL0 Copyright (c) Steve Scherf et al.
# Submitted via: ExactAudioCopy v0.99pb5
#
DISCID=ac123c0c
DTITLE=King Britt - Jazzmental
DYEAR=2005
DGENRE=Electronic
TTITLE0=Ennio Morricone - Come Maddalena (Cosmos Remix)
TTITLE1=Vikter Duplaix - Morena (Remix)
TTITLE2=Scuba - Our Time (feat Lizz Fields) (Original)
TTITLE3=Bugz in the Attic - Booty La La (Extended)
TTITLE4=Mark De Clive-Lowe - Slide
TTITLE5=Mark De Clive-Lowe - State of Mental (feat Bembe Segue)
TTITLE6=Fertile Ground - Living in the Light (UK Remix)
TTITLE7=Panic - Jam (feat Chickaboo) (Charlie Dark Vocal Remix)
TTITLE8=Cosmosis - Tell Her
TTITLE9=Soldiers of Twilight - Believe (King Britt Funke Mix)
TTITLE10=Intuit - Planet Birth (feat Andy Bey)
TTITLE11=AEB - Chea Chea (feat Jneiro Jarel and Karen Gibson)
EXTD=YEAR: 2005
EXTT0=
EXTT1=
EXTT2=
EXTT3=
EXTT4=
EXTT5=
EXTT6=
EXTT7=
EXTT8=
EXTT9=
EXTT10=
EXTT11=
PLAYORDER=
